<svg width="18" height="15" viewBox="0 0 18 15" fill="none" xmlns="http://www.w3.org/2000/svg">
<path d="M0.274677 7.816L6.48744 14.0225C6.66479 14.1996 6.90116 14.2969 7.15319 14.2969C7.40551 14.2969 7.64174 14.1995 7.81908 14.0225L8.38316 13.4588C8.56036 13.282 8.65799 13.0457 8.65799 12.7938C8.65799 12.542 8.56036 12.2978 8.38316 12.1209L4.75872 8.49224L16.2737 8.49224C16.7929 8.49224 17.2031 8.08622 17.2031 7.56744L17.2031 6.77062C17.2031 6.25184 16.7929 5.80488 16.2737 5.80488L4.7176 5.80488L8.38302 2.15597C8.56023 1.97881 8.65785 1.74897 8.65785 1.49706C8.65785 1.24542 8.56023 1.01223 8.38302 0.835209L7.81895 0.273398C7.6416 0.0962341 7.40537 -0.000311815 7.15305 -0.000311837C6.90102 -0.000311859 6.66465 0.0974908 6.4873 0.274655L0.274537 6.48098C0.0967702 6.6587 -0.000994341 6.89595 -0.000295043 7.14814C-0.000854521 7.40117 0.09677 7.63855 0.274677 7.816Z" fill="#72738E"/>
</svg>
