<svg width="10" height="10" viewBox="0 0 10 10" fill="none" xmlns="http://www.w3.org/2000/svg">
<path d="M9.16064 0.839924C8.99322 0.672499 8.72202 0.672499 8.55463 0.839924L5.00053 4.39406L1.44642 0.839924C1.279 0.672499 1.00779 0.672499 0.840411 0.839924C0.672988 1.00735 0.672988 1.27856 0.840411 1.44594L4.39452 5.00008L0.840411 8.5542C0.672988 8.72163 0.672988 8.99284 0.840411 9.16022C0.924103 9.24392 1.03379 9.28578 1.14344 9.28578C1.25308 9.28578 1.36273 9.24392 1.44646 9.16022L5.00057 5.60609L8.55468 9.16022C8.63837 9.24392 8.74805 9.28578 8.8577 9.28578C8.96735 9.28578 9.077 9.24392 9.16072 9.16022C9.32812 8.9928 9.32812 8.72159 9.16072 8.5542L5.60662 5.00008L9.16072 1.44594C9.32804 1.27856 9.32804 1.00735 9.16064 0.839924Z" fill="white"/>
</svg>
